<svg width="83" height="70" viewBox="0 0 83 70" fill="none" xmlns="http://www.w3.org/2000/svg">
<path d="M14.6978 45.4854V60.5208C14.6978 61.2944 15.0621 62.0363 15.7107 62.5832C16.3592 63.1302 17.2389 63.4375 18.1561 63.4375H64.8436C65.7608 63.4375 66.6404 63.1302 67.289 62.5832C67.9376 62.0363 68.3019 61.2944 68.3019 60.5208V22.6042M68.3019 22.6042H52.7394C51.8222 22.6042 50.9426 22.2969 50.294 21.7499C49.6454 21.2029 49.2811 20.461 49.2811 19.6875V6.5625M68.3019 22.6042L49.2811 6.5625M49.2811 6.5625H18.1561C17.2389 6.5625 16.3592 6.86979 15.7107 7.41677C15.0621 7.96375 14.6978 8.70562 14.6978 9.47917V30.0927" stroke="#9747FF" stroke-width="2.08333" stroke-linecap="round" stroke-linejoin="round"/>
<path d="M43.9155 31.974C43.8411 31.974 43.7702 31.9813 43.6976 31.9828C43.2572 29.8185 42.0252 27.8246 40.1743 26.2803C38.3233 24.7359 35.9461 23.7184 33.3753 23.3702C30.8045 23.0221 28.169 23.3607 25.8378 24.3386C23.5066 25.3165 21.5964 26.8849 20.3746 28.824C20.3003 28.8226 20.2276 28.8138 20.1515 28.8138C17.3293 28.8138 14.6226 29.7593 12.627 31.4424C10.6314 33.1255 9.51025 35.4082 9.51025 37.7884C9.51025 40.1686 10.6314 42.4513 12.627 44.1344C14.6226 45.8174 17.3293 46.763 20.1515 46.763H43.9155C46.2406 46.763 48.4705 45.984 50.1146 44.5974C51.7587 43.2108 52.6824 41.3302 52.6824 39.3692C52.6824 37.4083 51.7587 35.5276 50.1146 34.141C48.4705 32.7545 46.2406 31.9755 43.9155 31.9755" stroke="#9747FF" stroke-width="2.08333" stroke-linecap="round" stroke-linejoin="round"/>
</svg>
