<svg width="74" height="76" viewBox="0 0 74 76" fill="none" xmlns="http://www.w3.org/2000/svg">
<path d="M67.2335 31.7981H64.7498V31.6667H36.9998V44.3334H54.4253C51.8831 51.707 45.052 57 36.9998 57C26.7832 57 18.4998 48.4928 18.4998 38C18.4998 27.5073 26.7832 19 36.9998 19C41.7158 19 46.0063 20.8272 49.273 23.8118L57.9943 14.8549C52.4874 9.58396 45.1213 6.33337 36.9998 6.33337C19.9721 6.33337 6.1665 20.5121 6.1665 38C6.1665 55.488 19.9721 69.6667 36.9998 69.6667C54.0275 69.6667 67.8332 55.488 67.8332 38C67.8332 35.8768 67.6204 33.8042 67.2335 31.7981Z" fill="#FFC107"/>
<path d="M9.72168 23.2608L19.852 30.8909C22.5931 23.921 29.2315 19 36.9999 19C41.7159 19 46.0063 20.8272 49.2731 23.8118L57.9943 14.8549C52.4875 9.58396 45.1214 6.33337 36.9999 6.33337C25.1568 6.33337 14.8863 13.2003 9.72168 23.2608Z" fill="#FF3D00"/>
<path d="M37.0002 69.6667C44.9644 69.6667 52.201 66.5364 57.6724 61.446L48.1294 53.1525C44.9298 55.6516 41.02 57.0033 37.0002 57C28.9804 57 22.1709 51.7481 19.6055 44.4188L9.55078 52.3751C14.6537 62.6303 25.0168 69.6667 37.0002 69.6667Z" fill="#4CAF50"/>
<path d="M67.2336 31.798H64.75V31.6666H37V44.3333H54.4255C53.2094 47.8426 51.0189 50.9092 48.1247 53.154L48.1293 53.1509L57.6722 61.4444C56.997 62.0745 67.8333 53.8333 67.8333 38C67.8333 35.8767 67.6206 33.8041 67.2336 31.798Z" fill="#1976D2"/>
</svg>
