<svg width="333" height="276" viewBox="0 0 333 276" fill="none" xmlns="http://www.w3.org/2000/svg">
<g clip-path="url(#clip0_32_582)">
<path d="M291.375 80.5C295.055 80.5 298.584 81.7116 301.186 83.8683C303.788 86.0249 305.25 88.95 305.25 92C305.25 95.05 303.788 97.9751 301.186 100.132C298.584 102.288 295.055 103.5 291.375 103.5V218.5C295.055 218.5 298.584 219.712 301.186 221.868C303.788 224.025 305.25 226.95 305.25 230C305.25 233.05 303.788 235.975 301.186 238.132C298.584 240.288 295.055 241.5 291.375 241.5H41.625C37.9451 241.5 34.416 240.288 31.8139 238.132C29.2118 235.975 27.75 233.05 27.75 230C27.75 226.95 29.2118 224.025 31.8139 221.868C34.416 219.712 37.9451 218.5 41.625 218.5V103.5C37.9451 103.5 34.416 102.288 31.8139 100.132C29.2118 97.9751 27.75 95.05 27.75 92C27.75 88.95 29.2118 86.0249 31.8139 83.8683C34.416 81.7116 37.9451 80.5 41.625 80.5H291.375ZM97.125 126.5C93.4451 126.5 89.916 127.712 87.3139 129.868C84.7118 132.025 83.25 134.95 83.25 138V218.5H111V138C111 134.95 109.538 132.025 106.936 129.868C104.334 127.712 100.805 126.5 97.125 126.5ZM166.5 126.5C162.82 126.5 159.291 127.712 156.689 129.868C154.087 132.025 152.625 134.95 152.625 138V218.5H180.375V138C180.375 134.95 178.913 132.025 176.311 129.868C173.709 127.712 170.18 126.5 166.5 126.5ZM235.875 126.5C232.195 126.5 228.666 127.712 226.064 129.868C223.462 132.025 222 134.95 222 138V218.5H249.75V138C249.75 134.95 248.288 132.025 245.686 129.868C243.084 127.712 239.555 126.5 235.875 126.5ZM249.75 46C253.43 46 256.959 47.2116 259.561 49.3683C262.163 51.5249 263.625 54.45 263.625 57.5C263.625 60.55 262.163 63.4751 259.561 65.6317C256.959 67.7884 253.43 69 249.75 69H83.25C79.5701 69 76.041 67.7884 73.4389 65.6317C70.8368 63.4751 69.375 60.55 69.375 57.5C69.375 54.45 70.8368 51.5249 73.4389 49.3683C76.041 47.2116 79.5701 46 83.25 46H249.75Z" fill="white"/>
</g>
<defs>
<clipPath id="clip0_32_582">
<rect width="333" height="276" fill="white"/>
</clipPath>
</defs>
</svg>
