<svg width="100" height="108" viewBox="0 0 100 108" fill="none" xmlns="http://www.w3.org/2000/svg">
<g clip-path="url(#clip0_32_210)" filter="url(#filter0_d_32_210)">
<path d="M20.9688 88.6953C15.8828 71.2422 15.8828 35.4609 15.8828 35.4609L81.5078 35.2031C81.5078 35.2031 81.5078 67.6172 77.6953 88.4766L20.9688 88.6953Z" fill="#6D4C41"/>
<path d="M14.6562 92.2578V99.9844H82.7344V92.2578C82.7344 80.4063 66.0234 74.3906 48.9531 74.4141C31.9844 74.4375 14.6562 79.7109 14.6562 92.2578Z" fill="#424242"/>
<path d="M48.6953 66.8828C66.8172 66.8828 81.5078 53.0666 81.5078 36.0234C81.5078 18.9803 66.8172 5.16406 48.6953 5.16406C30.5735 5.16406 15.8828 18.9803 15.8828 36.0234C15.8828 53.0666 30.5735 66.8828 48.6953 66.8828Z" fill="#6D4C41"/>
<path d="M48.6953 70.5078H41.6016V78C41.6016 81.3906 44.4922 84.1406 48.0547 84.1406H49.3437C52.9062 84.1406 55.7969 81.3906 55.7969 78V70.5078H48.6953Z" fill="#E49500"/>
<path d="M48.6953 10.6016C29.6719 10.6016 24.6953 25.3437 24.6953 46.0625C24.6953 66.7734 39.4531 73.0937 48.6953 73.0937C57.9375 73.0937 72.6953 66.7734 72.6953 46.0625C72.6953 25.3516 67.7109 10.6016 48.6953 10.6016Z" fill="#FBC11B"/>
<path d="M55.9844 61.0234H41.5625C40.7344 61.0234 40.3828 61.5781 40.9297 62.4141C41.6953 63.5781 44.5312 65.8203 48.7734 65.8203C53.0156 65.8203 55.8516 63.5781 56.6172 62.4141C57.1641 61.5781 56.8125 61.0234 55.9844 61.0234ZM40.5703 47.4453C40.5703 49.6641 39.0859 51.4687 37.2422 51.4687C35.4062 51.4687 33.9062 49.6719 33.9062 47.4453C33.9062 45.2187 35.3984 43.4219 37.2422 43.4219C39.0859 43.4141 40.5703 45.2187 40.5703 47.4453ZM56.9766 47.4453C56.9766 49.6641 58.4609 51.4687 60.3125 51.4687C62.1484 51.4687 63.6406 49.6719 63.6406 47.4453C63.6406 45.2187 62.1484 43.4219 60.3125 43.4219C58.4609 43.4141 56.9766 45.2187 56.9766 47.4453Z" fill="#444444"/>
<path d="M52.2188 54.8984C50.9922 55.2422 49.7188 55.4141 48.7344 55.4141C47.75 55.4141 46.4766 55.2422 45.25 54.8984C44.7266 54.75 44.5156 55.25 44.7109 55.5781C45.1016 56.2656 46.6641 57.6406 48.7344 57.6406C50.8047 57.6406 52.3672 56.2578 52.7578 55.5781C52.9453 55.2422 52.7422 54.75 52.2188 54.8984Z" fill="#E49500"/>
<path d="M55.6797 26.8984C53.1562 29.3281 40.6094 40.6328 23.3203 43.5781V20.3984C23.3203 20.3984 30.7813 5.59375 48.6875 5.59375C66.5938 5.59375 74.0625 20.7734 74.0625 20.7734V43.5781C74.0625 43.5781 62.3281 39.0781 56.4375 27.0391C56.4051 26.9712 56.3572 26.912 56.2975 26.8663C56.2379 26.8205 56.1683 26.7895 56.0944 26.7758C56.0205 26.7621 55.9444 26.7661 55.8723 26.7874C55.8003 26.8087 55.7342 26.8467 55.6797 26.8984Z" fill="#6D4C41"/>
<path d="M48.7188 0L9.76562 7.20313L48.8203 0.015625L48.7188 0Z" fill="#262626"/>
<path d="M48.9375 0.0078125L48.9141 0L48.8203 0.015625L48.9375 0.0390625V0.0078125Z" fill="#424143"/>
<path d="M49.1562 0L88.1172 7.20313L49.0625 0.015625L49.1562 0Z" fill="#262626"/>
<path d="M88.1328 9.1875L88.1172 7.20312L48.9688 12.875H48.9219L9.76563 7.20312L9.75 9.1875L25.4297 11.9297L24.0859 15.7266C26.9609 16.9922 37.375 21.1953 48.9375 21.5C60.5 21.1875 70.5469 16.9922 73.4219 15.7266L72.0781 11.9297L88.1328 9.1875Z" fill="#262626"/>
<path d="M48.9375 0.0078125L48.9688 0L49.0625 0.015625L48.9375 0.0390625V0.0078125Z" fill="#424143"/>
<path d="M49.0625 0.015625L48.9375 0.0390625L48.8203 0.015625L9.76562 7.20312L48.9141 12.875L48.9375 12.8672L48.9688 12.875L88.1172 7.20312L49.0625 0.015625Z" fill="#424143"/>
<path d="M88.8281 35.8594C88.0391 35.8594 87.4062 36.5 87.4062 37.2812V43.3984C87.4062 43.7755 87.5561 44.1372 87.8227 44.4039C88.0894 44.6705 88.451 44.8203 88.8281 44.8203C89.2052 44.8203 89.5669 44.6705 89.8335 44.4039C90.1002 44.1372 90.25 43.7755 90.25 43.3984V37.2812C90.25 36.5 89.6172 35.8594 88.8281 35.8594ZM85.9844 35.8594C85.1953 35.8594 84.5625 36.5 84.5625 37.2812V43.3984C84.5625 43.7755 84.7123 44.1372 84.979 44.4039C85.2456 44.6705 85.6073 44.8203 85.9844 44.8203C86.3615 44.8203 86.7231 44.6705 86.9898 44.4039C87.2564 44.1372 87.4062 43.7755 87.4062 43.3984V37.2812C87.4062 36.5 86.7734 35.8594 85.9844 35.8594Z" fill="#FBC11B"/>
<path d="M86.8906 35.8594C86.1016 35.8594 85.4688 36.5 85.4688 37.2812V43.3984C85.4688 43.7755 85.6186 44.1372 85.8852 44.4039C86.1519 44.6705 86.5135 44.8203 86.8906 44.8203C87.2677 44.8203 87.6294 44.6705 87.896 44.4039C88.1627 44.1372 88.3125 43.7755 88.3125 43.3984V37.2812C88.3125 36.5 87.6797 35.8594 86.8906 35.8594Z" fill="#E49500"/>
<path d="M87.9766 35.8594C87.1875 35.8594 86.5547 36.5 86.5547 37.2812V43.3984C86.5547 44.1875 87.1953 44.8203 87.9766 44.8203C88.7578 44.8203 89.3984 44.1797 89.3984 43.3984V37.2812C89.3984 36.5 88.7656 35.8594 87.9766 35.8594Z" fill="#E49500"/>
<path d="M87.4062 35.8594C86.6172 35.8594 85.9844 36.5 85.9844 37.2812V44.7188C85.9844 45.0959 86.1342 45.4575 86.4008 45.7242C86.6675 45.9908 87.0291 46.1406 87.4062 46.1406C87.7834 46.1406 88.145 45.9908 88.4117 45.7242C88.6783 45.4575 88.8281 45.0959 88.8281 44.7188V37.2812C88.8281 36.5 88.1953 35.8594 87.4062 35.8594Z" fill="#FBC11B"/>
<path d="M87.4062 37.0625C88.2951 37.0625 89.0156 36.342 89.0156 35.4531C89.0156 34.5643 88.2951 33.8438 87.4062 33.8438C86.5174 33.8438 85.7969 34.5643 85.7969 35.4531C85.7969 36.342 86.5174 37.0625 87.4062 37.0625Z" fill="#E49500"/>
<path d="M87.4062 36.6484C88.2951 36.6484 89.0156 35.9279 89.0156 35.0391C89.0156 34.1502 88.2951 33.4297 87.4062 33.4297C86.5174 33.4297 85.7969 34.1502 85.7969 35.0391C85.7969 35.9279 86.5174 36.6484 87.4062 36.6484Z" fill="#FBC11B"/>
<path d="M86.7031 7.38281V34.6875H86.7187C86.75 35.0469 87.0469 35.3359 87.4141 35.3359C87.7812 35.3359 88.0781 35.0547 88.1094 34.6875H88.125V7.38281H86.7031Z" fill="#262626"/>
<path d="M56.3828 100H41.0078V74.7656L48.6953 84.1406L56.3828 74.7656V100Z" fill="#424242"/>
</g>
<defs>
<filter id="filter0_d_32_210" x="-4" y="0" width="108" height="108" filterUnits="userSpaceOnUse" color-interpolation-filters="sRGB">
<feFlood flood-opacity="0" result="BackgroundImageFix"/>
<feColorMatrix in="SourceAlpha" type="matrix" values="0 0 0 0 0 0 0 0 0 0 0 0 0 0 0 0 0 0 127 0" result="hardAlpha"/>
<feOffset dy="4"/>
<feGaussianBlur stdDeviation="2"/>
<feComposite in2="hardAlpha" operator="out"/>
<feColorMatrix type="matrix" values="0 0 0 0 0 0 0 0 0 0 0 0 0 0 0 0 0 0 0.25 0"/>
<feBlend mode="normal" in2="BackgroundImageFix" result="effect1_dropShadow_32_210"/>
<feBlend mode="normal" in="SourceGraphic" in2="effect1_dropShadow_32_210" result="shape"/>
</filter>
<clipPath id="clip0_32_210">
<rect width="100" height="100" fill="white"/>
</clipPath>
</defs>
</svg>
