<svg width="100" height="108" viewBox="0 0 100 108" fill="none" xmlns="http://www.w3.org/2000/svg">
<g clip-path="url(#clip0_32_233)" filter="url(#filter0_d_32_233)">
<path d="M29.7891 23.9609C29.7891 23.9609 29.7891 48.2031 32.9141 59.4766C34.4531 65.0312 36.375 68.5313 40.9844 65.0703L58.8672 64.8906C63.4687 68.4062 66.7656 65.0391 67.7578 59.3281C70.1016 45.8594 70.1016 23.9609 70.1016 23.9609H29.7891Z" fill="#6D4C41"/>
<path d="M74.9453 100.414L24.9453 100.43V69.0625C24.9453 59.4687 32.1172 53.6484 41.3984 52.0469C47.4219 51.0078 53.2891 51.3906 58.6484 52.6562C67.4219 54.7422 74.9453 60.1797 74.9453 69.0625V100.414Z" fill="#651FFF"/>
<path d="M25.0547 100.414L75.0547 100.43V69.0625C75.0547 59.4687 67.8828 53.6484 58.6016 52.0469C52.5781 51.0078 46.7109 51.3906 41.3516 52.6562C32.5781 54.7422 25.0547 60.1797 25.0547 69.0625V100.414Z" fill="#651FFF"/>
<path d="M31.1953 100.413H24.9453V75.8734H31.1953V100.413ZM68.8047 75.875H75.0547V100.414H68.8047V75.875Z" fill="#FCC21B"/>
<path d="M50 57.9063C46.9766 57.9063 44.5312 55.4609 44.5312 52.4375V47.7656H55.4688V52.4375C55.4688 55.4609 53.0234 57.9063 50 57.9063Z" fill="#E59900"/>
<path d="M50 41.9609C61.132 41.9609 70.1562 33.8496 70.1562 23.8437C70.1562 13.8379 61.132 5.72656 50 5.72656C38.868 5.72656 29.8438 13.8379 29.8438 23.8437C29.8438 33.8496 38.868 41.9609 50 41.9609Z" fill="#6D4C41"/>
<path d="M50 10.0859C37.6094 10.0859 34.3672 19.6953 34.3672 33.1875C34.3672 46.6797 43.9766 50.7969 50 50.7969C56.0234 50.7969 65.6328 46.6797 65.6328 33.1875C65.6328 19.6953 62.3906 10.0859 50 10.0859Z" fill="#FCC21B"/>
<path d="M44.6563 33.7422C44.6563 35.1875 43.6875 36.3594 42.4844 36.3594C41.2891 36.3594 40.3125 35.1875 40.3125 33.7422C40.3125 32.2891 41.2891 31.1172 42.4844 31.1172C43.6875 31.1172 44.6563 32.2969 44.6563 33.7422ZM55.3437 33.7422C55.3437 35.1875 56.3125 36.3594 57.5156 36.3594C58.7109 36.3594 59.6875 35.1875 59.6875 33.7422C59.6875 32.2891 58.7109 31.1172 57.5156 31.1172C56.3125 31.1172 55.3437 32.2969 55.3437 33.7422Z" fill="#444444"/>
<path d="M54.7266 20.6797C53.0781 22.2656 44.8984 29.6406 33.6172 31.5625V16.4375C33.6172 16.4375 38.4844 6.78125 50.1641 6.78125C61.8438 6.78125 66.7188 16.6797 66.7188 16.6797V31.5625C66.7188 31.5625 59.0625 28.625 55.2188 20.7734C55.1988 20.7284 55.1682 20.6889 55.1296 20.6583C55.091 20.6276 55.0456 20.6068 54.9972 20.5976C54.9488 20.5884 54.8989 20.591 54.8518 20.6053C54.8047 20.6196 54.7617 20.6451 54.7266 20.6797Z" fill="#6D4C41"/>
<path d="M54.703 42.6016H45.2967C44.7576 42.6016 44.5233 42.9609 44.8826 43.5078C45.3826 44.2656 47.2342 45.7266 49.992 45.7266C52.7576 45.7266 54.6092 44.2656 55.1014 43.5078C55.4686 42.9609 55.2342 42.6016 54.703 42.6016Z" fill="#4C3734"/>
<path d="M52.2732 38.8984C51.4763 39.125 50.6404 39.2344 49.9998 39.2344C49.3591 39.2344 48.531 39.125 47.7263 38.8984C47.3826 38.8047 47.2498 39.125 47.3748 39.3437C47.6248 39.7891 48.6482 40.6875 49.9998 40.6875C51.3513 40.6875 52.3669 39.7891 52.6248 39.3437C52.7498 39.125 52.6091 38.7969 52.2732 38.8984Z" fill="#E48C15"/>
<path d="M47.5783 100.875H13.3518C13.1096 100.875 13.3518 95.25 13.3518 95.25C13.3518 87.4375 23.2971 84.8203 26.7502 84.8203H34.1877C37.6408 84.8203 47.5705 87.4375 47.5705 95.25V95.4687C47.5783 95.75 47.8283 100.875 47.5783 100.875Z" fill="#D8BEFF"/>
<path d="M30.8438 90.8594H30.0938C29.6536 90.8594 29.2178 90.7727 28.8112 90.6043C28.4045 90.4358 28.0351 90.1889 27.7238 89.8777C27.4126 89.5665 27.1657 89.197 26.9973 88.7904C26.8289 88.3838 26.7422 87.9479 26.7422 87.5078V85.6484H34.1875V87.5078C34.1875 89.3594 32.6875 90.8594 30.8438 90.8594Z" fill="#E59600"/>
<path d="M30.4609 81.7344C39.3924 81.7344 46.6328 75.0536 46.6328 66.8125C46.6328 58.5714 39.3924 51.8906 30.4609 51.8906C21.5295 51.8906 14.2891 58.5714 14.2891 66.8125C14.2891 75.0536 21.5295 81.7344 30.4609 81.7344Z" fill="#6D4C41"/>
<path d="M43.7031 70.875C43.7031 70.875 46.1641 71.3047 46.1641 73.9531C46.1641 76.2969 44.3672 77.2187 42.5703 77.2187V70.875H43.7031ZM17.2188 70.875C17.2188 70.875 14.7578 71.3047 14.7578 73.9531C14.7578 76.2969 16.5547 77.2187 18.3516 77.2187V70.875H17.2188Z" fill="#E59600"/>
<path d="M41.078 78.0781C42.3983 78.1328 43.5858 78.6797 44.2576 79.8672C44.5623 80.4141 44.7811 81.0859 44.8904 81.7031C44.9842 82.2422 44.8983 83.3281 45.367 83.7266C45.578 83.9063 46.0155 83.9375 46.1405 84.2031C46.4764 84.9375 44.828 85.7344 44.3983 85.8672C41.5936 86.7578 37.6873 85.7344 36.953 82.4688C36.4061 79.9922 38.6483 77.9844 41.078 78.0781ZM19.9608 78.0859C18.6405 78.1172 17.4373 78.6406 16.7498 79.8203C16.4295 80.3672 16.203 81.0234 16.0858 81.6406C15.9764 82.1797 16.0545 83.2656 15.5701 83.6563C15.3514 83.8281 14.9139 83.8516 14.7889 84.125C14.4451 84.8594 16.078 85.6797 16.4998 85.8203C19.2889 86.7656 23.2186 85.8047 23.9998 82.5547C24.5936 80.0781 22.3905 78.0313 19.9608 78.0859Z" fill="#6D4C41"/>
<path d="M39.8361 62.9219C37.5939 60.1328 33.7345 58.9297 30.4611 58.9297C27.1955 58.9297 23.3361 60.125 21.0939 62.9219C18.9064 65.6484 17.7502 69.1797 17.7658 73.9141C17.7814 77.7266 18.7658 80.6641 21.5314 82.9687C24.0939 85.1094 27.0548 86.2656 30.2658 86.2656C33.422 86.2656 36.9064 85.1641 39.3752 82.9922C42.0861 80.6094 43.133 77.7344 43.1486 73.9141C43.1798 69.1719 42.0236 65.6484 39.8361 62.9219Z" fill="#FCC21B"/>
<path d="M32.3204 76.7734C31.6642 76.9609 30.9923 77.0469 30.4689 77.0469C29.9454 77.0469 29.2658 76.9531 28.6173 76.7734C28.3361 76.6953 28.2267 76.9609 28.3283 77.1328C28.5392 77.5 29.3673 78.2344 30.4689 78.2344C31.5704 78.2344 32.4064 77.5 32.6095 77.1328C32.7033 76.9609 32.5939 76.6953 32.3204 76.7734Z" fill="#E59600"/>
<path d="M34.2968 79.7891H26.625C26.1875 79.7891 26 80.0859 26.289 80.5313C26.6953 81.1484 28.2109 82.3438 30.4609 82.3438C32.7109 82.3438 34.2265 81.1484 34.6328 80.5313C34.9296 80.0859 34.7421 79.7891 34.2968 79.7891Z" fill="#513F35"/>
<path d="M44.6406 60.7969L34.0859 53.7656H26.7891L16.2344 60.7969L14.8438 65.7734L16.2969 70.2422L17.3281 72.2188C22.8984 70.9531 28.4922 67.0547 30.25 64.8672C30.3438 64.75 30.5234 64.75 30.625 64.8672C32.3906 67.0547 37.8516 70.8984 43.5469 72.2188L44.5703 70.2422L46.0234 65.7734L44.6406 60.7969Z" fill="#6D4C41"/>
<path d="M25.3828 74.0234C25.3828 75.1562 24.625 76.0703 23.6875 76.0703C22.75 76.0703 21.9922 75.1562 21.9922 74.0234C21.9922 72.8906 22.7578 71.9688 23.6875 71.9688C24.625 71.9688 25.3828 72.8828 25.3828 74.0234ZM38.9375 74.0234C38.9375 75.1562 38.1797 76.0703 37.2422 76.0703C36.3047 76.0703 35.5469 75.1562 35.5469 74.0234C35.5469 72.8906 36.3125 71.9688 37.2422 71.9688C38.1797 71.9688 38.9375 72.8828 38.9375 74.0234Z" fill="#444444"/>
<path d="M87.0315 100.875H52.8127C52.5705 100.875 52.8127 95.25 52.8127 95.25C52.8127 87.4375 62.758 84.8203 66.2112 84.8203H73.6487C77.1018 84.8203 87.0315 87.4375 87.0315 95.25V95.4687C87.0315 95.75 87.2815 100.875 87.0315 100.875Z" fill="#D8BEFF"/>
<path d="M70.2969 90.8594H69.5469C69.1067 90.8594 68.6709 90.7727 68.2643 90.6043C67.8577 90.4358 67.4882 90.1889 67.177 89.8777C66.8657 89.5665 66.6189 89.197 66.4504 88.7904C66.282 88.3838 66.1953 87.9479 66.1953 87.5078V85.6484H73.6406V87.5078C73.6406 89.3594 72.1406 90.8594 70.2969 90.8594Z" fill="#E59600"/>
<path d="M69.9141 81.7344C78.8455 81.7344 86.0859 75.0536 86.0859 66.8125C86.0859 58.5714 78.8455 51.8906 69.9141 51.8906C60.9826 51.8906 53.7422 58.5714 53.7422 66.8125C53.7422 75.0536 60.9826 81.7344 69.9141 81.7344Z" fill="#6D4C41"/>
<path d="M83.1563 70.875C83.1563 70.875 85.6172 71.3047 85.6172 73.9531C85.6172 76.2969 83.8203 77.2187 82.0234 77.2187V70.875H83.1563ZM56.6797 70.875C56.6797 70.875 54.2188 71.3047 54.2188 73.9531C54.2188 76.2969 56.0156 77.2187 57.8125 77.2187V70.875H56.6797Z" fill="#E59600"/>
<path d="M80.5311 78.0781C81.8514 78.1328 83.0389 78.6797 83.7108 79.8672C84.0155 80.4141 84.2342 81.0859 84.3436 81.7031C84.4373 82.2422 84.3514 83.3281 84.8201 83.7266C85.0311 83.9063 85.4686 83.9375 85.5936 84.2031C85.9295 84.9375 84.2811 85.7344 83.8514 85.8672C81.0467 86.7578 77.1405 85.7344 76.4061 82.4688C75.8592 79.9922 78.1014 77.9844 80.5311 78.0781ZM59.4139 78.0859C58.0936 78.1172 56.8905 78.6406 56.203 79.8203C55.8826 80.3672 55.6561 81.0234 55.5389 81.6406C55.4295 82.1797 55.5076 83.2656 55.0233 83.6563C54.8045 83.8281 54.367 83.8516 54.242 84.125C53.8983 84.8594 55.5311 85.6797 55.953 85.8203C58.742 86.7656 62.6717 85.8047 63.453 82.5547C64.0545 80.0781 61.8436 78.0313 59.4139 78.0859Z" fill="#6D4C41"/>
<path d="M79.2892 62.9219C77.047 60.1328 73.1877 58.9297 69.9142 58.9297C66.6486 58.9297 62.7892 60.125 60.547 62.9219C58.3595 65.6484 57.2033 69.1797 57.2189 73.9141C57.2345 77.7266 58.2189 80.6641 60.9845 82.9687C63.547 85.1094 66.508 86.2656 69.7189 86.2656C72.8752 86.2656 76.3595 85.1641 78.8283 82.9922C81.5392 80.6094 82.5861 77.7344 82.6017 73.9141C82.633 69.1719 81.4767 65.6484 79.2892 62.9219Z" fill="#FCC21B"/>
<path d="M71.7736 76.7734C71.1173 76.9609 70.4454 77.0469 69.922 77.0469C69.3986 77.0469 68.7189 76.9531 68.0704 76.7734C67.7892 76.6953 67.6798 76.9609 67.7814 77.1328C67.9923 77.5 68.8204 78.2344 69.922 78.2344C71.0236 78.2344 71.8595 77.5 72.0626 77.1328C72.1564 76.9609 72.047 76.6953 71.7736 76.7734Z" fill="#E59600"/>
<path d="M73.7578 79.7891H66.0859C65.6484 79.7891 65.4609 80.0859 65.75 80.5313C66.1562 81.1484 67.6718 82.3438 69.9218 82.3438C72.1796 82.3438 73.6874 81.1484 74.0937 80.5313C74.3828 80.0859 74.1953 79.7891 73.7578 79.7891Z" fill="#513F35"/>
<path d="M84.0937 60.7969L73.5391 53.7656H66.2422L55.6875 60.7969L54.3047 65.7734L55.7578 70.2422L56.7891 72.2188C62.3594 70.9531 67.9531 67.0547 69.7109 64.8672C69.8047 64.75 69.9844 64.75 70.0859 64.8672C71.8516 67.0547 77.3125 70.8984 83.0078 72.2188L84.0312 70.2422L85.4844 65.7734L84.0937 60.7969Z" fill="#6D4C41"/>
<path d="M64.8359 74.0234C64.8359 75.1562 64.0781 76.0703 63.1406 76.0703C62.2031 76.0703 61.4453 75.1562 61.4453 74.0234C61.4453 72.8906 62.2109 71.9688 63.1406 71.9688C64.0781 71.9688 64.8359 72.8828 64.8359 74.0234ZM78.3906 74.0234C78.3906 75.1562 77.6328 76.0703 76.6953 76.0703C75.7578 76.0703 75 75.1562 75 74.0234C75 72.8906 75.7656 71.9688 76.6953 71.9688C77.6328 71.9688 78.3906 72.8828 78.3906 74.0234Z" fill="#444444"/>
</g>
<defs>
<filter id="filter0_d_32_233" x="-4" y="0" width="108" height="108" filterUnits="userSpaceOnUse" color-interpolation-filters="sRGB">
<feFlood flood-opacity="0" result="BackgroundImageFix"/>
<feColorMatrix in="SourceAlpha" type="matrix" values="0 0 0 0 0 0 0 0 0 0 0 0 0 0 0 0 0 0 127 0" result="hardAlpha"/>
<feOffset dy="4"/>
<feGaussianBlur stdDeviation="2"/>
<feComposite in2="hardAlpha" operator="out"/>
<feColorMatrix type="matrix" values="0 0 0 0 0 0 0 0 0 0 0 0 0 0 0 0 0 0 0.25 0"/>
<feBlend mode="normal" in2="BackgroundImageFix" result="effect1_dropShadow_32_233"/>
<feBlend mode="normal" in="SourceGraphic" in2="effect1_dropShadow_32_233" result="shape"/>
</filter>
<clipPath id="clip0_32_233">
<rect width="100" height="100" fill="white"/>
</clipPath>
</defs>
</svg>
