<svg width="108" height="108" viewBox="0 0 108 108" fill="none" xmlns="http://www.w3.org/2000/svg">
<g clip-path="url(#clip0_32_148)" filter="url(#filter0_d_32_148)">
<path d="M57.7578 23.9609C57.7578 23.9609 57.7578 48.2031 60.8828 59.4766C62.4219 65.0312 64.3438 68.5313 68.9531 65.0703L86.8359 64.8906C91.4375 68.4062 94.7344 65.0391 95.7266 59.3281C98.0703 45.8594 98.0703 23.9609 98.0703 23.9609H57.7578Z" fill="#6D4C41"/>
<path d="M73.9219 52.0469C73.9219 52.0469 61.4219 50.9141 54 63.7031V77.4687L73.9219 52.0469Z" fill="#651FFF"/>
<path d="M104 100.414L54 100.43V69.0625C54 59.4687 61.1719 53.6484 70.4531 52.0469C76.4766 51.0078 82.3437 51.3906 87.7031 52.6562C96.4766 54.7422 104 60.1797 104 69.0625V100.414Z" fill="#651FFF"/>
<path d="M4 100.414L54 100.43V69.0625C54 59.4687 46.4844 53.6484 37.2031 52.0469C31.1797 51.0078 25.6563 51.3906 20.2969 52.6562C11.5234 54.7422 4 60.1875 4 69.0625V100.414Z" fill="#00BFA5"/>
<path d="M34.0781 52.0469C34.0781 52.0469 46.8359 50.9141 54 63.7031V77.4687L34.0781 52.0469Z" fill="#00BFA5"/>
<path d="M30.1406 57.9063C27.1172 57.9063 24.6719 55.4609 24.6719 52.4375V47.4219H35.6094V52.4375C35.6094 55.4609 33.1562 57.9063 30.1406 57.9063Z" fill="#E59900"/>
<path d="M46.5937 29.0781C46.5937 29.0781 49.6094 29.6016 49.6094 32.8516C49.6094 35.7187 47.4062 36.8516 45.2031 36.8516V29.0781H46.5937ZM13.6797 29.0781C13.6797 29.0781 10.6641 29.6016 10.6641 32.8516C10.6641 35.7187 12.8672 36.8516 15.0703 36.8516V29.0781H13.6797Z" fill="#E59600"/>
<path d="M30.1406 7.79688C17.1328 7.79688 13.7344 17.875 13.7344 32.0391C13.7344 46.7266 23.1719 50.5234 30.1406 50.5234C37.0078 50.5234 46.5469 46.8359 46.5469 32.0391C46.5469 17.8828 43.1406 7.79688 30.1406 7.79688Z" fill="#FCC21B"/>
<path d="M24.7344 33.3594C24.7344 34.8203 23.7578 36.0078 22.5469 36.0078C21.3359 36.0078 20.3516 34.8203 20.3516 33.3594C20.3516 31.8906 21.3359 30.7109 22.5469 30.7109C23.7578 30.7031 24.7344 31.8906 24.7344 33.3594ZM35.5391 33.3594C35.5391 34.8203 36.5156 36.0078 37.7344 36.0078C38.9453 36.0078 39.9297 34.8203 39.9297 33.3594C39.9297 31.8906 38.9453 30.7109 37.7344 30.7109C36.5156 30.7031 35.5391 31.8906 35.5391 33.3594Z" fill="#444444"/>
<path d="M34.8907 42.3047H25.3907C24.8438 42.3047 24.6094 42.6719 24.9688 43.2187C25.4766 43.9844 27.3438 45.4609 30.1329 45.4609C32.9219 45.4609 34.7969 43.9844 35.2969 43.2187C35.6641 42.6719 35.4297 42.3047 34.8907 42.3047Z" fill="#513F35"/>
<path d="M32.4297 38.2656C31.625 38.4922 30.7813 38.6094 30.1329 38.6094C29.4844 38.6094 28.6485 38.5 27.836 38.2656C27.4922 38.1641 27.3516 38.4922 27.4766 38.7109C27.7344 39.1641 28.7657 40.0703 30.125 40.0703C31.4844 40.0703 32.5235 39.1641 32.7735 38.7109C32.9141 38.4922 32.7813 38.1641 32.4297 38.2656Z" fill="#E59600"/>
<path d="M30.5312 5.94531C30.5312 5.94531 30.2813 5.9375 30.1641 5.9375C30.0547 5.9375 29.7969 5.94531 29.7969 5.94531C15.7734 6.21875 11.5391 14.6641 11.5391 20.5156C11.5391 26.2031 11.5469 30.3828 11.5469 30.3828C11.5469 30.3828 11.7734 30.1484 12.1797 29.8281C12.6172 29.4844 13.1094 29.2969 13.1094 29.2969L13.8203 34.0469L18.5 24.2734C18.5312 24.2109 18.5938 24.1797 18.6563 24.1875L21.4297 24.4922C24.2187 24.8047 27.0156 24.9531 29.8125 24.9609V24.9687H30.5469V24.9609C33.3437 24.9531 36.1406 24.8047 38.9297 24.4922L41.7031 24.1875C41.7734 24.1797 41.8359 24.2187 41.8594 24.2734L46.5391 34.0469L47.25 29.2969C47.25 29.2969 47.7344 29.4922 48.1797 29.8281C48.5938 30.1484 48.8125 30.3828 48.8125 30.3828C48.8125 30.3828 48.8203 26.2031 48.8203 20.5156C48.7969 14.6641 44.5625 6.21875 30.5312 5.94531Z" fill="#6D4C41"/>
<path d="M4 75.875H10.3984V100.414H4V75.875ZM97.8594 75.875H104.109V100.414H97.8594V75.875Z" fill="#FCC21B"/>
<path d="M77.9688 57.9063C74.9453 57.9063 72.5 55.4609 72.5 52.4375V47.7656H83.4375V52.4375C83.4375 55.4609 80.9844 57.9063 77.9688 57.9063Z" fill="#E59900"/>
<path d="M77.9688 41.9609C89.1007 41.9609 98.125 33.8496 98.125 23.8437C98.125 13.8379 89.1007 5.72656 77.9688 5.72656C66.8368 5.72656 57.8125 13.8379 57.8125 23.8437C57.8125 33.8496 66.8368 41.9609 77.9688 41.9609Z" fill="#6D4C41"/>
<path d="M77.9688 10.0859C65.5781 10.0859 62.3359 19.6953 62.3359 33.1875C62.3359 46.6797 71.9453 50.7969 77.9688 50.7969C83.9922 50.7969 93.6016 46.6797 93.6016 33.1875C93.6016 19.6953 90.3594 10.0859 77.9688 10.0859Z" fill="#FCC21B"/>
<path d="M72.6172 33.7422C72.6172 35.1875 71.6484 36.3594 70.4453 36.3594C69.25 36.3594 68.2734 35.1875 68.2734 33.7422C68.2734 32.2891 69.25 31.1172 70.4453 31.1172C71.6484 31.1172 72.6172 32.2969 72.6172 33.7422ZM83.3125 33.7422C83.3125 35.1875 84.2813 36.3594 85.4844 36.3594C86.6797 36.3594 87.6563 35.1875 87.6563 33.7422C87.6563 32.2891 86.6797 31.1172 85.4844 31.1172C84.2813 31.1172 83.3125 32.2969 83.3125 33.7422Z" fill="#444444"/>
<path d="M82.6953 20.6797C81.0469 22.2656 72.8672 29.6406 61.5859 31.5625V16.4375C61.5859 16.4375 66.4531 6.78125 78.1328 6.78125C89.8125 6.78125 94.6797 16.6875 94.6797 16.6875V31.5625C94.6797 31.5625 87.0234 28.625 83.1797 20.7734C83.1607 20.7285 83.131 20.6889 83.0931 20.6582C83.0553 20.6275 83.0104 20.6065 82.9625 20.5973C82.9146 20.588 82.8652 20.5907 82.8186 20.605C82.772 20.6194 82.7297 20.6451 82.6953 20.6797Z" fill="#6D4C41"/>
<path d="M82.6639 42.6016H73.2576C72.7186 42.6016 72.4842 42.9609 72.8436 43.5078C73.3436 44.2656 75.1951 45.7266 77.953 45.7266C80.7108 45.7266 82.5701 44.2656 83.0623 43.5078C83.4373 42.9609 83.203 42.6016 82.6639 42.6016Z" fill="#4C3734"/>
<path d="M80.2341 38.8984C79.4373 39.125 78.6013 39.2344 77.9607 39.2344C77.3201 39.2344 76.4919 39.125 75.6873 38.8984C75.3435 38.8047 75.2107 39.125 75.3357 39.3437C75.5857 39.7891 76.6091 40.6875 77.9607 40.6875C79.3123 40.6875 80.3279 39.7891 80.5857 39.3437C80.7107 39.125 80.5779 38.7969 80.2341 38.8984Z" fill="#E48C15"/>
<path d="M70.844 100.875H37.1565C36.9143 100.875 37.1565 95.2969 37.1565 95.2969C37.1565 87.6094 46.9455 85.0312 50.344 85.0312H57.6643C61.0627 85.0312 70.844 87.6094 70.844 95.2969V95.5156C70.844 95.7891 71.0862 100.875 70.844 100.875Z" fill="#B2DFDB"/>
<path d="M53.9922 90.8594C53.0204 90.8594 52.0884 90.4733 51.4013 89.7862C50.7142 89.099 50.3281 88.1671 50.3281 87.1953V84.3828H57.6641V87.1953C57.6641 89.2187 56.0234 90.8594 53.9922 90.8594Z" fill="#E59900"/>
<path d="M54 82.3359C62.9315 82.3359 70.1719 75.5188 70.1719 67.1094C70.1719 58.7 62.9315 51.8828 54 51.8828C45.0685 51.8828 37.8281 58.7 37.8281 67.1094C37.8281 75.5188 45.0685 82.3359 54 82.3359Z" fill="#6D4C41"/>
<path d="M67.2422 70.875C67.2422 70.875 69.7031 71.3047 69.7031 73.9531C69.7031 76.2969 67.9062 77.2187 66.1094 77.2187V70.875H67.2422ZM40.7578 70.875C40.7578 70.875 38.2969 71.3047 38.2969 73.9531C38.2969 76.2969 40.0937 77.2187 41.8906 77.2187V70.875H40.7578Z" fill="#E59600"/>
<path d="M63.3752 62.9141C61.133 60.125 57.2736 58.9219 54.0002 58.9219C50.7345 58.9219 46.8673 60.1172 44.6252 62.9141C42.4298 65.6484 41.2814 69.1719 41.297 73.9063C41.3127 77.7266 42.297 80.6562 45.0627 82.9687C47.6252 85.1094 50.5939 86.2656 53.8048 86.2656C56.9611 86.2656 60.4455 85.1641 62.9142 82.9922C65.6252 80.6094 66.672 77.7266 66.6877 73.9141C66.7189 69.1719 65.5627 65.6484 63.3752 62.9141Z" fill="#FCC21B"/>
<path d="M55.8517 76.7734C55.1954 76.9609 54.5236 77.0469 54.0001 77.0469C53.4767 77.0469 52.797 76.9531 52.1486 76.7734C51.8673 76.6953 51.7579 76.9609 51.8595 77.1328C52.0704 77.5 52.8986 78.2344 54.0001 78.2344C55.1017 78.2344 55.9376 77.5 56.1408 77.1328C56.2423 76.9609 56.1329 76.6953 55.8517 76.7734Z" fill="#E59600"/>
<path d="M57.8359 79.7891H50.1641C49.7266 79.7891 49.5313 80.0859 49.8281 80.5313C50.2344 81.1484 51.75 82.3438 54 82.3438C56.2578 82.3438 57.7656 81.1484 58.1797 80.5313C58.4688 80.0859 58.2813 79.7891 57.8359 79.7891Z" fill="#513F35"/>
<path d="M48.9219 74.0156C48.9219 75.1484 48.1641 76.0625 47.2266 76.0625C46.2891 76.0625 45.5312 75.1484 45.5312 74.0156C45.5312 72.8828 46.2969 71.9609 47.2266 71.9609C48.1641 71.9687 48.9219 72.8828 48.9219 74.0156ZM62.4766 74.0156C62.4766 75.1484 61.7187 76.0625 60.7812 76.0625C59.8437 76.0625 59.0859 75.1484 59.0859 74.0156C59.0859 72.8828 59.8516 71.9609 60.7812 71.9609C61.7187 71.9687 62.4766 72.8828 62.4766 74.0156Z" fill="#444444"/>
<path d="M40.6016 73.1406C40.6016 73.1406 44.2891 69.2812 45.6406 67.9844C45.7266 67.8984 45.8672 67.9688 45.8516 68.0938C45.7969 68.6328 45.7578 69.2188 45.7344 69.5703C45.7266 69.7344 45.875 69.8672 46.0391 69.8359C48.6875 69.3359 51.2344 68.2344 51.9141 67.9219C52 67.8828 52.0859 67.9531 52.0859 68.0391C52.0703 68.5312 52.0781 69 52.0859 69.2813C52.0859 69.4375 52.2266 69.5547 52.3828 69.5313C54.8125 69.1563 56.8359 68.1641 57.5078 67.8047C57.6641 67.7188 57.8359 67.7031 58.0078 67.7656C59.2656 68.2187 60.7969 69.1094 61.3516 69.4375C61.4766 69.5078 61.6328 69.4688 61.7031 69.3438C61.9141 68.9609 62.2109 68.375 62.3438 68.0938C62.3828 68.0156 62.4844 68 62.5391 68.0547C64.5156 70.0078 67.4063 73.1328 67.4063 73.1328L69.4453 66.5859C69.4453 66.5859 66.1406 54.9375 54.6641 54.9375C43.1875 54.9375 38.8359 67.375 38.8359 67.375L40.6016 73.1406Z" fill="#6D4C41"/>
</g>
<defs>
<filter id="filter0_d_32_148" x="0" y="0" width="108" height="108" filterUnits="userSpaceOnUse" color-interpolation-filters="sRGB">
<feFlood flood-opacity="0" result="BackgroundImageFix"/>
<feColorMatrix in="SourceAlpha" type="matrix" values="0 0 0 0 0 0 0 0 0 0 0 0 0 0 0 0 0 0 127 0" result="hardAlpha"/>
<feOffset dy="4"/>
<feGaussianBlur stdDeviation="2"/>
<feComposite in2="hardAlpha" operator="out"/>
<feColorMatrix type="matrix" values="0 0 0 0 0 0 0 0 0 0 0 0 0 0 0 0 0 0 0.25 0"/>
<feBlend mode="normal" in2="BackgroundImageFix" result="effect1_dropShadow_32_148"/>
<feBlend mode="normal" in="SourceGraphic" in2="effect1_dropShadow_32_148" result="shape"/>
</filter>
<clipPath id="clip0_32_148">
<rect width="100" height="100" fill="white" transform="translate(4)"/>
</clipPath>
</defs>
</svg>
