<svg width="104" height="105" viewBox="0 0 104 105" fill="none" xmlns="http://www.w3.org/2000/svg">
<g filter="url(#filter0_d_32_183)">
<path d="M42.211 29.6328C21.8047 29.0937 -2.20309 6.84375 5.9141 30.625C10.586 44.2969 26.3828 50.9609 42.211 50.7578C58.0391 50.9609 73.836 44.3047 78.5078 30.625C86.625 6.84375 62.6172 29.0937 42.211 29.6328ZM42.4063 70.8438H35.4375V79.1875C35.4375 82.9609 38.2735 86.0156 41.7735 86.0156H43.0391C46.5391 86.0156 49.375 82.9531 49.375 79.1875V70.8438H42.4063Z" fill="#E59600"/>
<path d="M63.1797 40.4531H21.2422C16.7187 40.4531 13.0234 44.3906 13.0234 49.2109C13.0234 54.0313 16.7187 57.9687 21.2422 57.9687H63.1875C67.7109 57.9687 71.4062 54.0313 71.4062 49.2109C71.4062 44.3906 67.7031 40.4531 63.1797 40.4531Z" fill="#E59600"/>
<path d="M42.2109 10.2422C28.8516 10.2422 16.4844 24.5234 16.4844 45.0781C16.4844 65.5234 29.2266 75.625 42.2109 75.625C55.1953 75.625 67.9375 65.5234 67.9375 45.0781C67.9375 24.5234 55.5703 10.2422 42.2109 10.2422Z" fill="#FFCA28"/>
<path d="M24.3984 40.5C26.703 37.2265 31.9609 36.9219 34.9687 39.3515C35.4452 39.7344 36.078 40.2812 36.2734 40.8828C36.578 41.8672 35.6405 42.6328 34.7187 42.3984C34.1327 42.25 33.5859 41.9375 32.9999 41.7578C31.9452 41.4219 31.1796 41.3359 30.2265 41.3281C28.8202 41.3203 27.914 41.5 26.578 42.039C26.0312 42.2656 25.578 42.6172 24.953 42.3594C24.2343 42.0625 23.9687 41.1484 24.3984 40.5ZM58.4999 42.3594C58.2734 42.2656 58.0624 42.1328 57.8359 42.039C56.4609 41.4609 55.6796 41.3203 54.1874 41.3281C52.8749 41.3359 52.0859 41.5156 51.0702 41.8672C50.4374 42.0859 49.6484 42.625 48.953 42.414C47.9374 42.1015 47.9687 40.9922 48.5234 40.2812C49.1874 39.4453 50.0937 38.8125 51.0702 38.3906C53.3124 37.4219 56.0546 37.5547 58.164 38.8125C58.8593 39.2265 59.6093 39.789 60.0233 40.5C60.6015 41.5078 59.6874 42.8437 58.4999 42.3594Z" fill="#6D4C41"/>
<path d="M30.2578 50.7969C32.3461 50.7969 34.0391 49.0445 34.0391 46.8828C34.0391 44.7211 32.3461 42.9688 30.2578 42.9688C28.1695 42.9688 26.4766 44.7211 26.4766 46.8828C26.4766 49.0445 28.1695 50.7969 30.2578 50.7969Z" fill="#404040"/>
<path d="M54.1641 50.7969C56.2524 50.7969 57.9453 49.0445 57.9453 46.8828C57.9453 44.7211 56.2524 42.9688 54.1641 42.9688C52.0757 42.9688 50.3828 44.7211 50.3828 46.8828C50.3828 49.0445 52.0757 50.7969 54.1641 50.7969Z" fill="#404040"/>
<path d="M48.7577 60.1875C46.3124 61.6406 38.2967 61.6406 35.8514 60.1875C34.4452 59.3516 33.0155 60.6328 33.5936 61.9063C34.1639 63.1641 38.5389 66.0703 42.3202 66.0703C46.1014 66.0703 50.4139 63.1641 50.992 61.9063C51.578 60.625 50.1639 59.3516 48.7577 60.1875Z" fill="#795548"/>
<path d="M45.172 53.9766C45.0939 53.9453 45.0079 53.9219 44.922 53.9141H39.5001C39.4142 53.9219 39.3361 53.9453 39.2501 53.9766C38.7579 54.1797 38.4845 54.6875 38.7189 55.2266C38.9533 55.7656 40.0314 57.2891 42.2111 57.2891C44.3908 57.2891 45.4689 55.7656 45.7032 55.2266C45.9376 54.6875 45.6642 54.1797 45.172 53.9766Z" fill="#E59600"/>
<path d="M70.2577 45L70.1484 45.2812L70.0546 45.5312L69.789 46.2109C69.7655 46.2813 69.7421 46.3438 69.7109 46.4141L67.9374 50.9453C67.8359 51.2109 67.453 51.1875 67.3905 50.9063C67.289 50.4688 67.1562 49.8906 66.9999 49.2031C66.828 48.4141 66.6093 47.4766 66.3749 46.4609C65.9218 44.5156 65.3905 42.2656 64.8515 40.0938C64.5546 38.9219 64.2655 37.7656 63.9843 36.6953C63.7421 35.8047 63.5156 34.9766 63.2968 34.2422C63.1015 33.5703 62.914 32.9688 62.7421 32.4766C62.6874 32.3047 62.6327 32.1484 62.5781 32.0078C61.7734 29.8672 59.5546 28.625 57.3046 29.0313C53.8515 29.6563 48.3515 30.4375 42.2734 30.4375C42.2577 30.4375 42.2343 30.4297 42.2109 30.4297C42.1874 30.4297 42.1718 30.4375 42.1484 30.4375C36.0781 30.4375 30.5702 29.6563 27.1171 29.0313C24.8671 28.625 22.6484 29.8672 21.8437 32.0078C21.289 33.4766 20.5156 36.3203 19.7421 39.4062C19.6484 39.7812 19.5546 40.1563 19.4609 40.5391C19.3124 41.1172 19.1718 41.7109 19.0312 42.2969C18.914 42.7656 18.8046 43.2344 18.6952 43.6953C18.6874 43.7031 18.6874 43.7109 18.6874 43.7266C18.5781 44.1797 18.4687 44.6328 18.3671 45.0781C18.3593 45.0938 18.3593 45.1016 18.3593 45.1094C18.2499 45.5547 18.1484 45.9922 18.0546 46.4063C17.8515 47.2734 17.664 48.0859 17.4999 48.7969C17.3827 49.3125 17.2734 49.7734 17.1874 50.1797C17.1249 50.4531 17.0702 50.7031 17.0234 50.9141C17.0156 50.9531 16.9999 50.9844 16.9843 51.0078C16.9602 51.0571 16.9223 51.0983 16.8751 51.1263C16.8279 51.1543 16.7736 51.1679 16.7188 51.1654C16.664 51.1629 16.6111 51.1444 16.5667 51.1123C16.5222 51.0801 16.4882 51.0357 16.4687 50.9844C15.9296 49.6094 14.9062 46.9297 14.4296 45.6797L14.3749 45.5312C14.3202 45.3906 14.2734 45.2734 14.2421 45.1875L14.1718 45C14.1718 45 13.3593 40.4766 13.6093 34.4531C13.6171 34.2578 13.6249 34.0547 13.6406 33.8516C13.6562 33.4531 13.6874 33.0391 13.7187 32.625C13.7265 32.4531 13.7421 32.2812 13.7577 32.1094C13.9374 30.0156 14.2577 27.7891 14.789 25.5547H69.6327C71.9765 35.3984 70.2577 45 70.2577 45Z" fill="#543930"/>
<path d="M70.2577 45L70.1484 45.2812L70.0546 45.5312C69.9843 45.7187 69.8905 45.9531 69.789 46.2109C69.7655 46.2813 69.7421 46.3438 69.7109 46.4141C69.1874 47.7969 68.3906 49.8516 67.9374 50.9922C67.9163 51.0494 67.8772 51.0983 67.8259 51.1313C67.7747 51.1644 67.714 51.1799 67.6532 51.1754C67.5924 51.171 67.5346 51.147 67.4886 51.1069C67.4427 51.0668 67.411 51.0128 67.3984 50.9531C67.3984 50.9375 67.3905 50.9219 67.3905 50.9063C67.289 50.4688 67.1562 49.8906 66.9999 49.2031C66.8202 48.4141 66.6093 47.4766 66.3749 46.4609C65.9218 44.5156 65.3905 42.2656 64.8515 40.0938C64.5624 38.9141 64.2655 37.7656 63.9843 36.6953C63.7421 35.8047 63.5156 34.9766 63.2968 34.2422C63.1015 33.5703 62.914 32.9688 62.7421 32.4766C62.6874 32.3047 62.6327 32.1484 62.5781 32.0078C61.7734 29.8672 59.5546 28.625 57.3046 29.0313C53.8515 29.6563 48.3515 30.4375 42.2734 30.4375C42.2577 30.4375 42.2343 30.4297 42.2109 30.4297C42.1874 30.4297 42.1718 30.4375 42.1484 30.4375C36.0781 30.4375 30.5702 29.6563 27.1171 29.0313C24.8671 28.625 22.6484 29.8672 21.8437 32.0078C21.289 33.4766 20.5156 36.3203 19.7421 39.4062C19.6484 39.7812 19.5546 40.1563 19.4609 40.5391C19.3124 41.1172 19.1718 41.7109 19.0312 42.2969C18.914 42.7656 18.8046 43.2344 18.6952 43.6953C18.6874 43.7031 18.6874 43.7109 18.6874 43.7266C18.5781 44.1875 18.4687 44.6406 18.3671 45.0781C18.3593 45.0938 18.3593 45.1016 18.3593 45.1094C18.2499 45.5547 18.1562 45.9844 18.0546 46.4063C17.8515 47.2734 17.664 48.0859 17.4999 48.7969C17.3827 49.3125 17.2812 49.7813 17.1874 50.1797C17.1249 50.4531 17.0702 50.7031 17.0234 50.9141C17.0156 50.9531 16.9999 50.9844 16.9843 51.0078C16.8671 51.1875 16.5702 51.1797 16.4765 50.9531L14.4296 45.6797L14.3749 45.5312L14.2421 45.1875L14.1718 45C14.1718 45 13.3593 40.4766 13.6093 34.4531C13.6171 34.2578 13.6249 34.0547 13.6406 33.8516C13.6562 33.4531 13.6874 33.0391 13.7187 32.625C13.7265 32.4531 13.7421 32.2812 13.7577 32.1094C13.9374 30.0156 14.2577 27.7891 14.789 25.5547H69.6327C71.9765 35.3984 70.2577 45 70.2577 45Z" fill="url(#paint0_radial_32_183)"/>
<path d="M62.5389 22.6875C58.7732 13.3203 55.0701 5.92969 50.3279 5.35938C49.0623 5.21094 45.7498 4.78906 42.3982 4.78125C38.9217 4.78125 35.4061 5.20313 34.1014 5.35938C29.3592 5.92969 25.6561 13.3203 21.8826 22.6797C19.8357 27.7578 64.5857 27.7578 62.5389 22.6875Z" fill="url(#paint1_linear_32_183)"/>
<path d="M73.5391 19.3125C66.1719 20.6484 53.8672 22.2031 42.6563 22.25H41.7656C30.5547 22.2031 18.25 20.6484 10.8828 19.3125C4.52344 18.1563 4.29688 22.3125 4.29688 22.3125C4.29688 22.3125 6.3125 19.8203 9.85156 23.2735C15.3438 28.6328 24.2891 37.1406 41.7031 37.211C41.875 37.211 42.0391 37.2031 42.2109 37.2031C42.3828 37.2031 42.5469 37.211 42.7188 37.211C60.1406 37.1328 69.0781 28.6328 74.5703 23.2735C78.1094 19.8203 80.125 22.3125 80.125 22.3125C80.125 22.3125 79.8984 18.1563 73.5391 19.3125Z" fill="url(#paint2_linear_32_183)"/>
<path d="M42.2109 21.4297C36.3203 21.4297 28.9141 20.8438 25.1484 20.5156C28.1641 19.0391 34.2578 16.6719 42.2109 16.6719C50.1641 16.6719 56.25 19.0469 59.2734 20.5156C55.5078 20.8438 48.1016 21.4297 42.2109 21.4297Z" fill="#78909C"/>
<path d="M42.2109 17.4141C48.1016 17.4141 52.9531 18.7422 56.2422 20.0078C52.2656 20.3203 46.7813 20.6719 42.2109 20.6719C37.6406 20.6719 32.1562 20.3203 28.1797 20.0078C32.6595 18.2949 37.4148 17.4158 42.2109 17.4141ZM42.2109 15.9141C30.3516 15.9141 22.6406 21.0312 22.6406 21.0312C22.6406 21.0312 33.8672 22.1797 42.2109 22.1797C50.5547 22.1797 61.7812 21.0312 61.7812 21.0312C61.7812 21.0312 54.0703 15.9141 42.2109 15.9141Z" fill="#90A4AE"/>
<path d="M85.9688 85.1641V96.875" stroke="#D18100" stroke-width="3.90625" stroke-miterlimit="10"/>
<path d="M86.875 91.2188H85.0625C83.9766 91.2188 83.1016 91.2188 83.1016 89.2578V79.875H88.8281V89.2578C88.8359 90.9219 87.9531 91.2188 86.875 91.2188Z" fill="#636363"/>
<path d="M93.1953 77.7344C91.7578 77.7344 87.1484 77.7812 86.1094 77.7812C84.4531 77.7812 80.0625 77.6328 78.2734 77.6328C72.4297 77.6328 72.3828 56.7812 72.3828 56.7812V76.0859C72.3828 81.3125 75.0547 82.9844 79.7422 83.1563H91.7578C95.9922 83.1563 97.5 80.2578 97.5 76.7891L97.2031 72.9922C97.1875 73 96.0547 77.7344 93.1953 77.7344Z" fill="#616161"/>
<path d="M98.3828 30C98.2969 29.6719 97.8125 29.6797 97.7344 30.0078L96.8359 33.6641L95.2734 74.4297C95.2734 74.4297 95.2656 74.6406 95.2656 74.75C95.2656 75.9531 94.3359 76.8125 93.1328 76.8125C91.9297 76.8125 90.9375 75.9375 90.9375 74.7344C90.9375 74.5625 91.4063 33.8125 91.4063 33.8125L90.4766 29.8047C90.3906 29.4766 89.9141 29.4766 89.8281 29.7969L88.7734 33.7422L88.2891 74.4844C88.2891 75.8125 87.4844 76.8203 86.1562 76.8203C84.8281 76.8203 83.75 75.7422 83.75 74.4141L83.5156 33.6563L82.5938 29.7969C82.5078 29.4766 82.0391 29.4766 81.9453 29.7969L80.7734 33.8203L80.7969 74.3359C80.7969 75.7109 79.8437 76.8281 78.4687 76.8281C76.9375 76.8281 75.8125 75.7109 75.8125 74.3359L74.2188 33.6641L73.1719 29.7812C73.0859 29.4531 72.7031 29.5156 72.6094 29.8359L71.5391 33.7422L72.7891 75.6406C72.7891 79.1719 75.0391 81.8438 79.7266 82.0234H91.7422C95.9766 82.0234 97.6016 79.1094 97.6016 75.6406L99.2891 33.9219L98.3828 30Z" fill="url(#paint3_linear_32_183)"/>
<path d="M76.7891 94.3828C76.7891 80.4844 56.8203 77.2812 49.7109 76.5859L43.7188 84.8203H41.1172L35.2188 76.5703C27.5234 77.2969 20.9766 79.125 16.25 81.8672C10.7969 85.0312 8.03906 89.2422 8.03906 94.375V96.875H76.8047V94.3828H76.7891Z" fill="url(#paint4_linear_32_183)"/>
<path d="M67.3437 93.8125L61.7422 89.5L61.9375 89.1953L41.6328 89.5781L22.9844 89.1953L23.1797 89.5L17.5781 93.8125L17.4453 96.875H67.4766L67.3437 93.8125Z" fill="url(#paint5_linear_32_183)"/>
<path d="M28.3906 83.6953L28.3047 77.5859C28.3047 77.5859 23.7812 78.5234 22.1563 79.2266L19.875 84.3828L22.8281 88.9609L28.3906 83.6953Z" fill="url(#paint6_linear_32_183)"/>
<path d="M56.5312 83.6953L56.6172 77.5859C56.6172 77.5859 61.1406 78.5234 62.7656 79.2266L65.0469 84.3828L62.0859 88.9609L56.5312 83.6953Z" fill="url(#paint7_linear_32_183)"/>
<path d="M59.0077 90.3203L63.0467 91.0859C63.5655 91.1821 64.1013 91.0694 64.5374 90.7724C64.9734 90.4753 65.2745 90.018 65.3748 89.5C65.471 88.9812 65.3583 88.4454 65.0613 88.0093C64.7642 87.5733 64.3069 87.2723 63.7889 87.1719L59.7498 86.4062C59.2311 86.31 58.6953 86.4227 58.2592 86.7198C57.8231 87.0168 57.5221 87.4742 57.4217 87.9922C57.2186 89.0781 57.9217 90.1172 59.0077 90.3203ZM25.9139 90.3203L21.8748 91.0859C20.7967 91.2891 19.7498 90.5781 19.5467 89.5C19.4505 88.9812 19.5632 88.4454 19.8603 88.0093C20.1573 87.5733 20.6147 87.2723 21.1327 87.1719L25.1717 86.4062C25.6905 86.31 26.2263 86.4227 26.6624 86.7198C27.0984 87.0168 27.3995 87.4742 27.4998 87.9922C27.703 89.0781 26.9998 90.1172 25.9139 90.3203Z" fill="#BDBDBD"/>
<path d="M35.1094 76.5859C33.0703 76.7812 31.1172 77.0625 29.25 77.4063L29.0547 93.7734L42.4063 84.7656L35.1094 76.5859Z" fill="url(#paint8_linear_32_183)"/>
<path d="M55.5625 77.4297C53.25 76.9922 51.1953 76.7344 49.7109 76.5859L42.4141 84.7734L55.7656 93.7813L55.5625 77.4297Z" fill="url(#paint9_linear_32_183)"/>
</g>
<defs>
<filter id="filter0_d_32_183" x="-2" y="0" width="108" height="108" filterUnits="userSpaceOnUse" color-interpolation-filters="sRGB">
<feFlood flood-opacity="0" result="BackgroundImageFix"/>
<feColorMatrix in="SourceAlpha" type="matrix" values="0 0 0 0 0 0 0 0 0 0 0 0 0 0 0 0 0 0 127 0" result="hardAlpha"/>
<feOffset dy="4"/>
<feGaussianBlur stdDeviation="2"/>
<feComposite in2="hardAlpha" operator="out"/>
<feColorMatrix type="matrix" values="0 0 0 0 0 0 0 0 0 0 0 0 0 0 0 0 0 0 0.25 0"/>
<feBlend mode="normal" in2="BackgroundImageFix" result="effect1_dropShadow_32_183"/>
<feBlend mode="normal" in="SourceGraphic" in2="effect1_dropShadow_32_183" result="shape"/>
</filter>
<radialGradient id="paint0_radial_32_183" cx="0" cy="0" r="1" gradientUnits="userSpaceOnUse" gradientTransform="translate(42.2132 43.9138) scale(27.6836 31.2326)">
<stop offset="0.794" stop-color="#6D4C41" stop-opacity="0"/>
<stop offset="1" stop-color="#6D4C41"/>
</radialGradient>
<linearGradient id="paint1_linear_32_183" x1="42.2115" y1="5.91719" x2="42.2115" y2="24.4992" gradientUnits="userSpaceOnUse">
<stop offset="0.003" stop-color="#FFF59D"/>
<stop offset="0.553" stop-color="#FEE565"/>
<stop offset="0.996" stop-color="#FDD835"/>
</linearGradient>
<linearGradient id="paint2_linear_32_183" x1="42.2109" y1="20.7399" x2="42.2109" y2="43.418" gradientUnits="userSpaceOnUse">
<stop offset="0.003" stop-color="#FFF59D"/>
<stop offset="0.553" stop-color="#FEE565"/>
<stop offset="0.996" stop-color="#FDD835"/>
</linearGradient>
<linearGradient id="paint3_linear_32_183" x1="85.4203" y1="84.7406" x2="85.4203" y2="38.9047" gradientUnits="userSpaceOnUse">
<stop stop-color="#757575"/>
<stop offset="0.482" stop-color="#9E9E9E"/>
</linearGradient>
<linearGradient id="paint4_linear_32_183" x1="42.4063" y1="96.875" x2="42.4063" y2="76.5766" gradientUnits="userSpaceOnUse">
<stop stop-color="#709E3B"/>
<stop offset="0.328" stop-color="#73A13E"/>
<stop offset="0.595" stop-color="#7DAB47"/>
<stop offset="0.839" stop-color="#8DBC57"/>
<stop offset="1" stop-color="#9CCC65"/>
</linearGradient>
<linearGradient id="paint5_linear_32_183" x1="42.4617" y1="97.2797" x2="42.4617" y2="78.0672" gradientUnits="userSpaceOnUse">
<stop stop-color="#1E88E5"/>
<stop offset="1" stop-color="#1565C0"/>
</linearGradient>
<linearGradient id="paint6_linear_32_183" x1="24.1359" y1="96.8688" x2="24.1359" y2="78.6055" gradientUnits="userSpaceOnUse">
<stop stop-color="#1E88E5"/>
<stop offset="1" stop-color="#1565C0"/>
</linearGradient>
<linearGradient id="paint7_linear_32_183" x1="60.7867" y1="96.8688" x2="60.7867" y2="78.6055" gradientUnits="userSpaceOnUse">
<stop stop-color="#1E88E5"/>
<stop offset="1" stop-color="#1565C0"/>
</linearGradient>
<linearGradient id="paint8_linear_32_183" x1="35.7305" y1="78.3352" x2="35.7305" y2="89.8797" gradientUnits="userSpaceOnUse">
<stop stop-color="#AED581"/>
<stop offset="1" stop-color="#8BC34A"/>
</linearGradient>
<linearGradient id="paint9_linear_32_183" x1="49.082" y1="76.6313" x2="49.082" y2="90.2516" gradientUnits="userSpaceOnUse">
<stop stop-color="#AED581"/>
<stop offset="1" stop-color="#8BC34A"/>
</linearGradient>
</defs>
</svg>
